<svg xmlns="http://www.w3.org/2000/svg" width="126" height="193.661" viewBox="0 0 126 193.661">
  <g id="logo" transform="translate(-772 -473)">
    <g id="logo-2" data-name="logo" transform="translate(194 -2)">
      <rect id="Ret창ngulo_1" data-name="Ret창ngulo 1" width="126" height="27" rx="13.5" transform="translate(578 578)" fill="#2d2d2d"/>
      <circle id="Elipse_2" data-name="Elipse 2" cx="23.5" cy="23.5" r="23.5" transform="translate(617 475)" fill="#2d2d2d"/>
      <path id="Ret창ngulo_2" data-name="Ret창ngulo 2" d="M8,0H78a8,8,0,0,1,8,8V28A18,18,0,0,1,68,46H18A18,18,0,0,1,0,28V8A8,8,0,0,1,8,0Z" transform="translate(598 527)" fill="#2d2d2d"/>
    </g>
    <path id="Caminho_1" data-name="Caminho 1" d="M-49.313-1.922l21.767-31.532v-.567H-51.471v1.906h20.728L-52.526-.583V0h25.421V-1.922ZM10.82-17.246c0-9.812-6.946-17.435-16.727-17.435-9.7,0-17.057,7.623-17.057,17.624,0,10.1,7.355,17.719,17.057,17.719C1.055.662,6.536-2.977,9.749-9.7H7.607A14.761,14.761,0,0,1-5.906-1.323c-8.419,0-14.755-6.369-15.061-15.073H10.789C10.8-16.664,10.82-16.979,10.82-17.246Zm-16.727-15.5c7.994,0,14.222,5.829,14.741,14.443H-20.937c.564-8.373,6.8-14.443,15.031-14.443Zm41.139-1.937A14.749,14.749,0,0,0,21.9-26.176l-.357-7.844H19.955V0h2.016V-19.813A13.147,13.147,0,0,1,34.855-32.792c7.292,0,11.7,4.9,11.7,13.009V0h2.016V-20.129C48.573-28.9,43.439-34.682,35.233-34.682Z" transform="translate(840 666)" fill="#2d2d2d"/>
  </g>
</svg>
